HIERARCHY
ROOT Hips
{
	OFFSET 0.000000 97.167313 0.000000
	CHANNELS 6 Xposition Yposition Zposition Xrotation Yrotation Zrotation
	JOINT Spine
	{
		OFFSET 0.000000 13.784798 0.064400
		CHANNELS 3 Xrotation Yrotation Zrotation
		JOINT Spine1
		{
			OFFSET 0.000000 12.037903 0.404700
			CHANNELS 3 Xrotation Yrotation Zrotation
			JOINT Spine2
			{
				OFFSET 0.000000 17.795601 0.420200
				CHANNELS 3 Xrotation Yrotation Zrotation
				JOINT Neck
				{
					OFFSET 0.000000 39.131302 11.954600
					CHANNELS 3 Xrotation Yrotation Zrotation
					JOINT Head
					{
						OFFSET 0.000000 14.456192 15.627699
						CHANNELS 3 Xrotation Yrotation Zrotation
						JOINT HeadTop_End
						{
							OFFSET 0.000000 15.703506 7.603401
							CHANNELS 3 Xrotation Yrotation Zrotation
							End Site
							{
								OFFSET 0.000000 17.447403 0.000000
							}
						}
					}
				}
				JOINT LeftShoulder
				{
					OFFSET 17.399500 24.608795 1.168800
					CHANNELS 3 Xrotation Yrotation Zrotation
					JOINT LeftArm
					{
						OFFSET 18.980635 5.765305 1.818600
						CHANNELS 3 Xrotation Yrotation Zrotation
						JOINT LeftForeArm
						{
							OFFSET 49.290169 0.000000 0.000000
							CHANNELS 3 Xrotation Yrotation Zrotation
							JOINT LeftHand
							{
								OFFSET 31.562012 0.000000 0.000000
								CHANNELS 3 Xrotation Yrotation Zrotation
								JOINT LeftHandThumb1
								{
									OFFSET 6.133995 -4.388519 7.076070
									CHANNELS 3 Xrotation Yrotation Zrotation
									JOINT LeftHandThumb2
									{
										OFFSET 6.037666 -3.485840 3.485847
										CHANNELS 3 Xrotation Yrotation Zrotation
										JOINT LeftHandThumb3
										{
											OFFSET 6.496506 -3.750763 3.750761
											CHANNELS 3 Xrotation Yrotation Zrotation
											JOINT LeftHandThumb4
											{
												OFFSET 5.616882 -3.242905 3.242910
												CHANNELS 3 Xrotation Yrotation Zrotation
												End Site
												{
													OFFSET -1.254608 7.132141 0.375429
												}
											}
										}
									}
								}
								JOINT LeftHandPinky1
								{
									OFFSET 18.920792 -0.453171 -11.426712
									CHANNELS 3 Xrotation Yrotation Zrotation
									JOINT LeftHandPinky2
									{
										OFFSET 4.919586 0.000000 0.000000
										CHANNELS 3 Xrotation Yrotation Zrotation
										JOINT LeftHandPinky3
										{
											OFFSET 5.233047 0.000000 0.000000
											CHANNELS 3 Xrotation Yrotation Zrotation
											JOINT LeftHandPinky4
											{
												OFFSET 5.571716 0.000000 0.000000
												CHANNELS 3 Xrotation Yrotation Zrotation
												End Site
												{
													OFFSET -3.459808 4.342407 -0.466164
												}
											}
										}
									}
								}
								JOINT LeftHandRing1
								{
									OFFSET 22.726120 -0.094986 -6.500475
									CHANNELS 3 Xrotation Yrotation Zrotation
									JOINT LeftHandRing2
									{
										OFFSET 6.408615 0.000000 0.000000
										CHANNELS 3 Xrotation Yrotation Zrotation
										JOINT LeftHandRing3
										{
											OFFSET 6.150223 0.000000 0.000000
											CHANNELS 3 Xrotation Yrotation Zrotation
											JOINT LeftHandRing4
											{
												OFFSET 6.145386 0.000000 0.000000
												CHANNELS 3 Xrotation Yrotation Zrotation
												End Site
												{
													OFFSET -3.671402 4.923981 -0.202372
												}
											}
										}
									}
								}
								JOINT LeftHandMiddle1
								{
									OFFSET 23.373947 0.000000 0.000001
									CHANNELS 3 Xrotation Yrotation Zrotation
									JOINT LeftHandMiddle2
									{
										OFFSET 6.996567 0.000000 0.000000
										CHANNELS 3 Xrotation Yrotation Zrotation
										JOINT LeftHandMiddle3
										{
											OFFSET 7.015945 0.000000 0.000000
											CHANNELS 3 Xrotation Yrotation Zrotation
											JOINT LeftHandMiddle4
											{
												OFFSET 7.721573 0.000000 0.000000
												CHANNELS 3 Xrotation Yrotation Zrotation
												End Site
												{
													OFFSET -4.651108 6.158463 0.251582
												}
											}
										}
									}
								}
								JOINT LeftHandIndex1
								{
									OFFSET 21.310577 -0.490082 6.209344
									CHANNELS 3 Xrotation Yrotation Zrotation
									JOINT LeftHandIndex2
									{
										OFFSET 7.536453 0.000000 0.000000
										CHANNELS 3 Xrotation Yrotation Zrotation
										JOINT LeftHandIndex3
										{
											OFFSET 7.512344 0.000000 0.000000
											CHANNELS 3 Xrotation Yrotation Zrotation
											JOINT LeftHandIndex4
											{
												OFFSET 10.212402 0.000000 0.000001
												CHANNELS 3 Xrotation Yrotation Zrotation
												End Site
												{
													OFFSET -5.180801 8.690506 1.388433
												}
											}
										}
									}
								}
							}
						}
					}
				}
				JOINT RightShoulder
				{
					OFFSET -17.399500 24.608795 1.168800
					CHANNELS 3 Xrotation Yrotation Zrotation
					JOINT RightArm
					{
						OFFSET -18.980635 5.765305 1.818600
						CHANNELS 3 Xrotation Yrotation Zrotation
						JOINT RightForeArm
						{
							OFFSET -49.290169 0.000000 0.000000
							CHANNELS 3 Xrotation Yrotation Zrotation
							JOINT RightHand
							{
								OFFSET -31.562012 0.000000 0.000000
								CHANNELS 3 Xrotation Yrotation Zrotation
								JOINT RightHandThumb1
								{
									OFFSET -6.133995 -4.388519 7.076070
									CHANNELS 3 Xrotation Yrotation Zrotation
									JOINT RightHandThumb2
									{
										OFFSET -6.037666 -3.485840 3.485847
										CHANNELS 3 Xrotation Yrotation Zrotation
										JOINT RightHandThumb3
										{
											OFFSET -6.496506 -3.750763 3.750761
											CHANNELS 3 Xrotation Yrotation Zrotation
											JOINT RightHandThumb4
											{
												OFFSET -5.616882 -3.242905 3.242910
												CHANNELS 3 Xrotation Yrotation Zrotation
												End Site
												{
													OFFSET 1.254608 7.132141 0.375429
												}
											}
										}
									}
								}
								JOINT RightHandIndex1
								{
									OFFSET -21.310577 -0.490082 6.209344
									CHANNELS 3 Xrotation Yrotation Zrotation
									JOINT RightHandIndex2
									{
										OFFSET -7.536453 0.000000 0.000000
										CHANNELS 3 Xrotation Yrotation Zrotation
										JOINT RightHandIndex3
										{
											OFFSET -7.512344 0.000000 0.000000
											CHANNELS 3 Xrotation Yrotation Zrotation
											JOINT RightHandIndex4
											{
												OFFSET -10.212402 0.000000 0.000001
												CHANNELS 3 Xrotation Yrotation Zrotation
												End Site
												{
													OFFSET 5.180801 8.690506 1.388433
												}
											}
										}
									}
								}
								JOINT RightHandMiddle1
								{
									OFFSET -23.373947 0.000000 0.000001
									CHANNELS 3 Xrotation Yrotation Zrotation
									JOINT RightHandMiddle2
									{
										OFFSET -6.996567 0.000000 0.000000
										CHANNELS 3 Xrotation Yrotation Zrotation
										JOINT RightHandMiddle3
										{
											OFFSET -7.015945 0.000000 0.000000
											CHANNELS 3 Xrotation Yrotation Zrotation
											JOINT RightHandMiddle4
											{
												OFFSET -7.721573 0.000000 0.000000
												CHANNELS 3 Xrotation Yrotation Zrotation
												End Site
												{
													OFFSET 4.651108 6.158463 0.251582
												}
											}
										}
									}
								}
								JOINT RightHandRing1
								{
									OFFSET -22.726120 -0.094986 -6.500475
									CHANNELS 3 Xrotation Yrotation Zrotation
									JOINT RightHandRing2
									{
										OFFSET -6.408615 0.000000 0.000000
										CHANNELS 3 Xrotation Yrotation Zrotation
										JOINT RightHandRing3
										{
											OFFSET -6.150223 0.000000 0.000000
											CHANNELS 3 Xrotation Yrotation Zrotation
											JOINT RightHandRing4
											{
												OFFSET -6.145386 0.000000 0.000000
												CHANNELS 3 Xrotation Yrotation Zrotation
												End Site
												{
													OFFSET 3.671402 4.923981 -0.202372
												}
											}
										}
									}
								}
								JOINT RightHandPinky1
								{
									OFFSET -18.920792 -0.453171 -11.426712
									CHANNELS 3 Xrotation Yrotation Zrotation
									JOINT RightHandPinky2
									{
										OFFSET -4.919586 0.000000 0.000000
										CHANNELS 3 Xrotation Yrotation Zrotation
										JOINT RightHandPinky3
										{
											OFFSET -5.233047 0.000000 0.000000
											CHANNELS 3 Xrotation Yrotation Zrotation
											JOINT RightHandPinky4
											{
												OFFSET -5.571716 0.000000 0.000000
												CHANNELS 3 Xrotation Yrotation Zrotation
												End Site
												{
													OFFSET 3.459808 4.342407 -0.466164
												}
											}
										}
									}
								}
							}
						}
					}
				}
			}
		}
	}
	JOINT LeftUpLeg
	{
		OFFSET 19.899099 -7.885101 -3.429500
		CHANNELS 3 Xrotation Yrotation Zrotation
		JOINT LeftLeg
		{
			OFFSET 1.745560 -36.997807 10.304700
			CHANNELS 3 Xrotation Yrotation Zrotation
			JOINT LeftFoot
			{
				OFFSET -1.745558 -29.803308 -13.615400
				CHANNELS 3 Xrotation Yrotation Zrotation
				JOINT LeftToeBase
				{
					OFFSET 1.181900 -18.539904 15.226099
					CHANNELS 3 Xrotation Yrotation Zrotation
					JOINT LeftToe_End
					{
						OFFSET -0.863701 1.402801 16.534700
						CHANNELS 3 Xrotation Yrotation Zrotation
						End Site
						{
							OFFSET 0.000000 16.616566 0.000000
						}
					}
				}
			}
		}
	}
	JOINT RightUpLeg
	{
		OFFSET -19.899099 -7.885101 -3.429500
		CHANNELS 3 Xrotation Yrotation Zrotation
		JOINT RightLeg
		{
			OFFSET -1.745560 -36.997807 10.304700
			CHANNELS 3 Xrotation Yrotation Zrotation
			JOINT RightFoot
			{
				OFFSET 1.745558 -29.803308 -13.615400
				CHANNELS 3 Xrotation Yrotation Zrotation
				JOINT RightToeBase
				{
					OFFSET -1.181900 -18.539904 15.226099
					CHANNELS 3 Xrotation Yrotation Zrotation
					JOINT RightToe_End
					{
						OFFSET 0.863701 1.402801 16.534700
						CHANNELS 3 Xrotation Yrotation Zrotation
						End Site
						{
							OFFSET 0.000000 16.616566 0.000000
						}
					}
				}
			}
		}
	}
}
MOTION
Frames: 4
Frame Time: 0.033333
-5.762507 88.318085 1.130449 -7.178515 -35.572308 0.070705 5.747539 -0.241476 -2.162878 1.478832 -1.742464 -0.563806 1.465716 -1.637382 -0.100762 2.455875 4.751723 1.127229 -1.192275 -15.478879 -2.263769 -0.000000 0.000001 -0.000000 -0.595442 -16.331993 -20.041821 8.895987 6.822069 -37.058407 -0.000696 -94.785738 -0.000681 -127.373671 -6.535659 14.757467 -12.800136 -17.470135 4.121646 1.000135 0.731317 -1.438308 -7.335820 -0.421715 13.147357 0.000002 0.000002 0.000001 6.410327 8.363729 -80.414576 1.722718 4.149886 -45.074413 0.636270 2.657127 -26.928204 0.000002 0.000005 -0.000000 4.717028 8.075522 -77.582288 2.056311 4.456875 -49.517659 1.539979 3.959695 -42.490620 -0.000002 -0.000003 0.000003 2.434377 7.296051 -69.364075 3.297841 5.266367 -64.088662 0.787107 2.934906 -30.019569 0.000001 0.000001 0.000004 -3.532567 4.254347 -63.954592 3.402099 5.315521 -65.218922 1.034633 3.326104 -34.549853 -0.000003 -0.000000 0.000001 0.843559 18.528623 10.613910 9.856919 25.446554 38.144346 0.000019 99.201545 -0.000004 -35.673648 -21.229343 22.076860 20.470550 7.475580 18.843590 4.151720 -12.160925 -33.847989 -6.346165 -41.944021 -36.535495 0.000001 -0.000003 -0.000000 -0.887085 1.427996 12.684524 1.917419 -3.767470 53.934309 3.057983 -4.374547 69.896789 -0.000001 -0.000001 0.000003 0.770904 -5.199595 54.618827 5.563881 -4.568235 101.238587 4.771459 -4.655761 91.407896 0.000001 0.000001 -0.000001 6.934476 -8.544293 63.908775 2.909309 -4.317401 67.934721 1.862850 -3.727194 53.099455 -0.000003 -0.000001 -0.000003 8.373402 -8.171736 73.989943 2.173679 -3.940963 57.745397 1.042024 -2.937904 39.049879 -0.000000 0.000003 0.000003 -18.768897 9.854805 9.715536 30.590983 3.934978 0.880704 3.738000 10.081182 -9.210239 -3.833324 0.105817 -2.290136 0.000000 0.000001 -0.000000 3.332796 -27.936462 -8.074122 29.300275 5.299513 -4.924971 -27.969524 -15.607162 5.051940 -2.342325 0.000002 0.000001 -0.000000 0.000002 0.000000 
-6.171978 88.552628 1.333595 -7.328146 -36.434883 -0.101395 5.738107 0.054926 -2.183050 1.480401 -1.584480 -0.578730 1.465805 -1.485603 -0.141358 2.455876 4.751695 1.127229 -1.104976 -15.033272 -1.988155 -0.000000 0.000003 -0.000000 -0.595442 -16.331997 -20.041822 8.773862 6.375941 -37.035003 -0.000239 -94.469460 -0.000157 -127.301776 -6.445182 14.729101 -12.800133 -17.470138 4.121644 1.000137 0.731310 -1.438308 -7.335819 -0.421715 13.147356 -0.000001 -0.000003 0.000000 6.410331 8.363725 -80.414576 1.722718 4.149882 -45.074409 0.636272 2.657128 -26.928202 0.000001 0.000000 -0.000002 4.717032 8.075519 -77.582281 2.056308 4.456869 -49.517656 1.539986 3.959698 -42.490614 -0.000004 -0.000001 0.000003 2.434378 7.296043 -69.364068 3.297846 5.266365 -64.088662 0.787105 2.934907 -30.019566 0.000003 0.000001 0.000006 -3.532567 4.254347 -63.954586 3.402101 5.315522 -65.218922 1.034632 3.326103 -34.549849 -0.000001 0.000003 -0.000001 0.837366 18.517674 10.681617 10.051642 25.200009 37.921521 0.000076 99.275946 -0.000008 -35.795433 -21.037802 21.906012 20.470552 7.475586 18.843582 4.151721 -12.160927 -33.847986 -6.346167 -41.944028 -36.535491 -0.000002 -0.000002 0.000004 -0.887082 1.427997 12.684524 1.917416 -3.767466 53.934309 3.057988 -4.374547 69.896789 -0.000000 0.000002 0.000001 0.770902 -5.199591 54.618823 5.563881 -4.568235 101.238587 4.771459 -4.655763 91.407903 -0.000001 0.000001 -0.000001 6.934477 -8.544291 63.908769 2.909305 -4.317401 67.934721 1.862847 -3.727195 53.099451 0.000001 0.000002 -0.000003 8.373404 -8.171733 73.989937 2.173675 -3.940959 57.745397 1.042021 -2.937904 39.049882 -0.000000 0.000002 0.000001 -19.653104 10.044739 8.928842 28.723189 2.666757 0.960941 5.057335 7.254149 -8.887953 -3.958320 0.042861 -0.979323 -0.000000 -0.000000 -0.000000 4.045247 -26.741775 -7.914934 28.467351 4.160798 -4.754007 -27.545523 -14.904335 5.635347 -2.342325 0.000000 0.000001 0.000000 0.000000 0.000000 
-6.563960 88.854332 1.467962 -7.481296 -37.232990 -0.219389 5.725394 0.329597 -2.258757 1.481982 -1.427573 -0.593555 1.465870 -1.334621 -0.179946 2.455877 4.751699 1.127231 -0.913860 -14.635620 -1.683170 0.000000 0.000004 -0.000000 -0.595442 -16.331997 -20.041822 8.721965 5.924315 -36.976551 -0.000226 -94.152921 -0.000218 -127.281272 -6.398656 14.676745 -12.800130 -17.470140 4.121646 1.000137 0.731313 -1.438304 -7.335821 -0.421718 13.147354 -0.000001 0.000001 0.000001 6.410329 8.363723 -80.414576 1.722719 4.149883 -45.074413 0.636274 2.657129 -26.928204 -0.000000 0.000002 -0.000004 4.717032 8.075521 -77.582281 2.056306 4.456873 -49.517656 1.539986 3.959697 -42.490617 -0.000001 -0.000002 0.000005 2.434378 7.296044 -69.364075 3.297841 5.266367 -64.088669 0.787102 2.934907 -30.019566 0.000000 -0.000000 0.000008 -3.532562 4.254354 -63.954586 3.402102 5.315519 -65.218929 1.034634 3.326107 -34.549849 -0.000002 0.000000 -0.000001 0.834857 18.491760 10.732964 10.243703 24.986990 37.744619 -0.000009 99.308034 0.000021 -35.910464 -20.839274 21.764249 20.470550 7.475582 18.843582 4.151719 -12.160920 -33.847993 -6.346160 -41.944028 -36.535491 0.000002 0.000003 0.000005 -0.887082 1.427998 12.684522 1.917418 -3.767467 53.934312 3.057987 -4.374547 69.896789 0.000001 -0.000001 -0.000001 0.770906 -5.199593 54.618827 5.563879 -4.568235 101.238587 4.771460 -4.655763 91.407896 0.000002 -0.000000 -0.000004 6.934477 -8.544293 63.908769 2.909302 -4.317400 67.934714 1.862851 -3.727197 53.099451 -0.000000 0.000002 -0.000005 8.373402 -8.171737 73.989943 2.173679 -3.940961 57.745404 1.042020 -2.937905 39.049885 -0.000000 0.000003 0.000003 -20.097779 10.288396 8.171414 26.148169 2.139850 0.999530 6.885057 4.324667 -8.656969 -4.215259 -0.006244 0.140562 -0.000000 -0.000003 0.000000 4.732812 -25.605990 -7.789162 27.533918 3.017821 -4.595516 -27.037008 -14.204294 6.174269 -2.342325 0.000000 0.000001 -0.000000 0.000002 0.000000 
-6.896532 89.165009 1.549844 -7.637743 -37.970852 -0.331453 5.710340 0.583960 -2.341702 1.483636 -1.271542 -0.608301 1.465923 -1.184430 -0.217589 2.455875 4.751705 1.127229 -0.628591 -14.276581 -1.354189 -0.000000 -0.000002 -0.000000 -0.595442 -16.331995 -20.041821 8.728868 5.465907 -36.883889 -0.000119 -93.834956 -0.000180 -127.309207 -6.391567 14.600754 -12.800134 -17.470135 4.121647 1.000138 0.731316 -1.438312 -7.335820 -0.421715 13.147356 0.000001 -0.000000 -0.000003 6.410325 8.363725 -80.414576 1.722718 4.149885 -45.074416 0.636275 2.657129 -26.928207 0.000001 0.000002 -0.000005 4.717030 8.075523 -77.582281 2.056307 4.456873 -49.517652 1.539980 3.959698 -42.490617 -0.000001 -0.000002 0.000001 2.434377 7.296049 -69.364068 3.297842 5.266372 -64.088662 0.787106 2.934912 -30.019569 0.000004 -0.000001 -0.000001 -3.532567 4.254354 -63.954586 3.402098 5.315522 -65.218922 1.034631 3.326099 -34.549853 -0.000001 0.000001 0.000001 0.832934 18.453511 10.771600 10.430108 24.802275 37.609224 -0.000133 99.303314 0.000180 -36.015710 -20.638299 21.650708 20.470553 7.475587 18.843582 4.151720 -12.160931 -33.847986 -6.346164 -41.944024 -36.535495 0.000005 0.000003 0.000004 -0.887082 1.427998 12.684525 1.917419 -3.767462 53.934312 3.057985 -4.374547 69.896789 0.000001 0.000001 -0.000001 0.770906 -5.199590 54.618823 5.563881 -4.568236 101.238587 4.771460 -4.655764 91.407896 0.000002 -0.000001 -0.000007 6.934476 -8.544287 63.908769 2.909304 -4.317398 67.934714 1.862850 -3.727196 53.099451 -0.000001 0.000002 -0.000005 8.373403 -8.171731 73.989943 2.173672 -3.940963 57.745397 1.042020 -2.937893 39.049889 0.000000 -0.000000 0.000006 -20.113995 10.524825 7.598224 23.488419 2.100671 0.996942 8.696470 1.814635 -8.536931 -4.475645 -0.045102 0.984355 -0.000000 0.000000 -0.000000 5.332124 -24.560896 -7.698273 26.633677 1.952197 -4.453637 -26.504701 -13.532774 6.646657 -2.342325 -0.000002 0.000001 -0.000000 0.000000 0.000000 
